<svg width="57" height="14" viewBox="0 0 57 14" fill="none" xmlns="http://www.w3.org/2000/svg">
<path d="M22.6 8.2L25.69 12H23.25L20.5 8.51V12H18.5V2H20.5V7.88L23.04 5H25.59L22.6 8.2ZM14.6 4.8C14.1621 4.80655 13.7323 4.91914 13.3474 5.12813C12.9625 5.33712 12.634 5.63629 12.39 6V5H10.5V12H12.5V8.73C12.4737 8.49265 12.4966 8.25244 12.5672 8.02431C12.6378 7.79619 12.7546 7.58503 12.9103 7.40399C13.066 7.22294 13.2573 7.07589 13.4723 6.97198C13.6873 6.86807 13.9214 6.80953 14.16 6.8C15.32 6.8 15.5 7.94 15.5 8.73V12H17.5V8.29C17.5 6.09 16.77 4.8 14.64 4.8H14.6ZM32.5 8.66C32.5077 8.80657 32.5077 8.95343 32.5 9.1H27.25V9.17C27.3352 9.58701 27.5662 9.96 27.9016 10.2221C28.237 10.4841 28.6548 10.6181 29.08 10.6C29.4173 10.6147 29.7542 10.5611 30.0703 10.4426C30.3865 10.324 30.6755 10.1429 30.92 9.91L32.25 10.91C31.8285 11.3402 31.3215 11.6772 30.7617 11.8994C30.2019 12.1216 29.6018 12.224 29 12.2C28.5016 12.2315 28.0023 12.1557 27.5357 11.9777C27.0691 11.7997 26.6462 11.5236 26.2955 11.1681C25.9447 10.8127 25.6744 10.3861 25.5026 9.91714C25.3309 9.44823 25.2618 8.94791 25.3 8.45C25.2898 7.95847 25.3809 7.4701 25.5676 7.01533C25.7544 6.56056 26.0329 6.14913 26.3856 5.80669C26.7384 5.46426 27.1579 5.19814 27.618 5.02495C28.0781 4.85175 28.569 4.77517 29.06 4.8C30.94 4.8 32.5 6.13 32.5 8.66ZM30.64 7.8C30.6327 7.60192 30.5851 7.40741 30.5001 7.22833C30.4151 7.04924 30.2946 6.88933 30.1458 6.75834C29.9971 6.62735 29.8232 6.52803 29.6348 6.46642C29.4464 6.40481 29.2474 6.38221 29.05 6.4C28.627 6.35426 28.2027 6.47473 27.8669 6.73596C27.531 6.99719 27.3098 7.37873 27.25 7.8H30.64ZM2.5 2H0.5V12H6.5V10H2.5V2ZM38.5 2H40.5V12H38.61V11.3C38.37 11.5957 38.0641 11.8311 37.7168 11.9874C37.3695 12.1437 36.9905 12.2165 36.61 12.2C36.1452 12.1881 35.6877 12.0812 35.2657 11.886C34.8437 11.6907 34.4661 11.4112 34.1561 11.0647C33.8461 10.7182 33.6102 10.3119 33.463 9.87082C33.3158 9.42977 33.2603 8.96327 33.3 8.5C33.2528 8.03606 33.3026 7.56736 33.4464 7.12374C33.5902 6.68012 33.8248 6.27129 34.1352 5.92326C34.4456 5.57523 34.825 5.29563 35.2494 5.10225C35.6737 4.90886 36.1337 4.80593 36.6 4.8C36.9473 4.78479 37.2942 4.83885 37.6204 4.95903C37.9466 5.07921 38.2456 5.26311 38.5 5.5V2ZM38.65 8.5C38.6815 8.26908 38.663 8.0341 38.596 7.8109C38.5289 7.58771 38.4147 7.38149 38.2612 7.20616C38.1077 7.03083 37.9183 6.89046 37.7059 6.79452C37.4935 6.69858 37.2631 6.6493 37.03 6.65C36.5701 6.68339 36.1417 6.89591 35.8369 7.24187C35.5321 7.58783 35.3752 8.03958 35.4 8.5C35.3752 8.96042 35.5321 9.41217 35.8369 9.75813C36.1417 10.1041 36.5701 10.3166 37.03 10.35C37.2631 10.3507 37.4935 10.3014 37.7059 10.2055C37.9183 10.1095 38.1077 9.96917 38.2612 9.79384C38.4147 9.61851 38.5289 9.41229 38.596 9.1891C38.663 8.9659 38.6815 8.73092 38.65 8.5ZM8.5 1.8C8.17843 1.80458 7.87056 1.93099 7.63856 2.15371C7.40656 2.37643 7.26769 2.67888 7.25 3C7.25 3.33152 7.3817 3.64946 7.61612 3.88388C7.85054 4.1183 8.16848 4.25 8.5 4.25C8.83152 4.25 9.14946 4.1183 9.38388 3.88388C9.6183 3.64946 9.75 3.33152 9.75 3C9.73231 2.67888 9.59344 2.37643 9.36144 2.15371C9.12944 1.93099 8.82157 1.80458 8.5 1.8ZM7.5 12H9.5V5H7.5V12ZM56.5 1V13C56.5 13.2652 56.3946 13.5196 56.2071 13.7071C56.0196 13.8946 55.7652 14 55.5 14H43.5C43.2348 14 42.9804 13.8946 42.7929 13.7071C42.6054 13.5196 42.5 13.2652 42.5 13V1C42.5 0.734784 42.6054 0.48043 42.7929 0.292893C42.9804 0.105357 43.2348 0 43.5 0L55.5 0C55.7652 0 56.0196 0.105357 56.2071 0.292893C56.3946 0.48043 56.5 0.734784 56.5 1ZM46.5 5H44.5V12H46.5V5ZM46.75 3C46.75 2.66848 46.6183 2.35054 46.3839 2.11612C46.1495 1.8817 45.8315 1.75 45.5 1.75C45.1685 1.75 44.8505 1.8817 44.6161 2.11612C44.3817 2.35054 44.25 2.66848 44.25 3C44.25 3.33152 44.3817 3.64946 44.6161 3.88388C44.8505 4.1183 45.1685 4.25 45.5 4.25C45.8315 4.25 46.1495 4.1183 46.3839 3.88388C46.6183 3.64946 46.75 3.33152 46.75 3ZM54.5 8.29C54.5 6.09 53.77 4.8 51.64 4.8C51.1953 4.80006 50.7574 4.90955 50.365 5.11882C49.9726 5.3281 49.6378 5.63072 49.39 6V5H47.5V12H49.5V8.73C49.4737 8.49265 49.4966 8.25244 49.5672 8.02431C49.6378 7.79619 49.7546 7.58503 49.9103 7.40399C50.066 7.22294 50.2573 7.07589 50.4723 6.97198C50.6873 6.86807 50.9214 6.80953 51.16 6.8C52.32 6.8 52.5 7.94 52.5 8.73V12H54.5V8.29Z" fill="white"/>
</svg>